<svg width="100" height="100" viewBox="0 0 100 100" fill="none" xmlns="http://www.w3.org/2000/svg">
<path d="M91 26H8M8 43.4157V82.5564L91 83V43.6739" stroke="black" stroke-width="4"/>
<path d="M44 51V54.5714V57C44 57.5523 44.4477 58 45 58H54C54.5523 58 55 57.5523 55 57V51C55 50.4477 54.5523 50 54 50H45C44.4477 50 44 50.4477 44 51Z" stroke="black" stroke-width="4"/>
<path d="M61 26V18C61 17.4477 60.5523 17 60 17H39C38.4477 17 38 17.4477 38 18V22.1429V26" stroke="black" stroke-width="4"/>
<path d="M44.3051 54H28.6441L8 42.8V26H92V42.8L71.3559 54H55.6949" stroke="black" stroke-width="4"/>
</svg>
