<svg width="100" height="100" viewBox="0 0 100 100" fill="none" xmlns="http://www.w3.org/2000/svg">
<g clip-path="url(#clip0_18_9)">
<path d="M49.4995 31.1077L86.6751 43.5L49.4995 55.8923L12.3239 43.5L49.4995 31.1077Z" stroke="black" stroke-width="4"/>
<path d="M18.5 47V54.8571M18.5 54.8571L16 62H21L18.5 54.8571Z" stroke="black" stroke-width="4"/>
<path d="M32 51V68M67 68V51" stroke="black" stroke-width="4"/>
<path d="M66.5498 64.7344C67.5337 65.3159 68.8991 66.4055 68.8994 68.1494C68.8994 69.8936 67.5338 70.9828 66.5498 71.5645C65.4319 72.2252 63.9471 72.7513 62.2881 73.166C58.9392 74.0032 54.4187 74.5 49.5 74.5C44.581 74.5 40.0598 74.0032 36.7109 73.166C35.052 72.7513 33.567 72.2252 32.4492 71.5645C31.4652 70.9827 30.0996 69.8933 30.0996 68.1494C30.0999 66.4056 31.4653 65.316 32.4492 64.7344C32.5699 64.6631 32.6962 64.5955 32.8252 64.5273V68.1504H34.5381C35.1857 68.5219 36.231 68.9227 37.6807 69.2852C40.6292 70.0223 44.8096 70.5 49.5 70.5C54.1903 70.5 58.3699 70.0222 61.3184 69.2852C62.7672 68.9229 63.8121 68.5217 64.46 68.1504H66.1748V64.5273C66.3036 64.5954 66.4293 64.6632 66.5498 64.7344Z" fill="black"/>
</g>
<defs>
<clipPath id="clip0_18_9">
<rect width="100" height="100" fill="white"/>
</clipPath>
</defs>
</svg>
