<svg width="100" height="100" viewBox="0 0 100 100" fill="none" xmlns="http://www.w3.org/2000/svg">
<path d="M32.7455 53.1969C34.5887 57.0845 31.5526 62.3838 25.9643 65.0333C20.3759 67.6829 14.3515 66.6793 12.5084 62.7917C10.6652 58.9042 13.7013 53.6048 19.2896 50.9553C24.878 48.3058 30.9024 49.3094 32.7455 53.1969Z" fill="black"/>
<path d="M31.2881 55V10C40.5992 14.5918 50.3241 30.9388 39.5646 39.3878" stroke="black" stroke-width="4"/>
<path d="M66.7881 93L44.2881 86.0526V55.9474M66.7881 93L89.2881 86.0526V55.9474M66.7881 93V62.8947M89.2881 55.9474L66.7881 62.8947M89.2881 55.9474L66.7881 49L44.2881 55.9474M66.7881 62.8947L44.2881 55.9474" stroke="black" stroke-width="4"/>
<ellipse cx="66.7881" cy="56" rx="2.5" ry="1" fill="black"/>
<ellipse cx="82.846" cy="79.8073" rx="2.30883" ry="1.73162" transform="rotate(-60 82.846 79.8073)" fill="black"/>
<ellipse cx="78.2283" cy="75.1897" rx="2.30883" ry="1.73162" transform="rotate(-60 78.2283 75.1897)" fill="black"/>
<ellipse cx="73.6106" cy="70.5721" rx="2.30883" ry="1.73162" transform="rotate(-60 73.6106 70.5721)" fill="black"/>
<ellipse cx="59.7577" cy="82.1162" rx="2.30883" ry="1.73162" transform="rotate(60 59.7577 82.1162)" fill="black"/>
<ellipse cx="50.5223" cy="68.2632" rx="2.30883" ry="1.73162" transform="rotate(60 50.5223 68.2632)" fill="black"/>
</svg>
