<svg width="100" height="100" viewBox="0 0 100 100" fill="none" xmlns="http://www.w3.org/2000/svg">
<path d="M80 87C80 85.6667 80 84.3333 80 83C76.178 83 72.356 83 68.534 83C52.0227 83 35.5113 83 19 83L21 85C21 70.2632 21 55.5263 21 40.7895L20.2617 42.3413C30.5028 34.0149 40.7439 25.6885 50.985 17.3621C51.3173 17.092 51.6495 16.8219 51.9817 16.5518L49.3981 16.5008C59.1581 25.0973 68.9181 33.6938 78.6781 42.2903L78 40.7895C78 51.7043 78 62.6192 78 73.534C78 77.356 78 81.178 78 85C79.3333 85 80.6667 85 82 85C82 81.178 82 77.356 82 73.534C82 62.6192 82 51.7043 82 40.7895V39.8859L81.3219 39.2886C71.5619 30.6921 61.8019 22.0957 52.0419 13.4992L50.7717 12.3804L49.4583 13.4482C49.1261 13.7183 48.7939 13.9884 48.4617 14.2585C38.2205 22.5849 27.9794 30.9113 17.7383 39.2377L17 39.8379V40.7895C17 55.5263 17 70.2632 17 85V87H19C35.5113 87 52.0227 87 68.534 87C72.356 87 76.178 87 80 87ZM80 83V87H82V85H78L80 83Z" fill="black"/>
</svg>
