<svg width="100" height="100" viewBox="0 0 100 100" fill="none" xmlns="http://www.w3.org/2000/svg">
<circle cx="49.5" cy="49.5" r="37.5" stroke="black" stroke-width="4" stroke-miterlimit="16"/>
<path d="M43.5907 86C44.0957 84.9364 45.1943 82.3803 45.5331 81.3998C45.8813 80.3925 46.4634 79.4425 47.0548 77.8941C47.7873 75.976 48.1523 72.8131 49.1969 71.8056C49.8977 71.1296 51.9975 71.0699 52 65.0463C52.0006 63.5394 48.6258 62.6788 48.0332 62.5895C46.3938 62.3426 43.2552 61.4095 40.9746 59.0863C39.6995 57.7872 39.5292 56.5133 39.1066 55.2059C38.6575 53.8167 36.9961 53.2474 35.8514 52.7945C34.7088 52.3425 32.7726 52.5081 31.4934 53.1581C30.3793 53.7242 28.4578 53.7322 27.0098 53.0822C26.0078 52.6324 25.2343 51.8569 24.6391 51.0429C23.0764 48.9057 22.2698 44.9238 22.0147 43.9433C21.9526 43.7046 22.0972 43.4549 22.266 43.2492C23.0538 42.2894 24.8841 42.3091 26.3651 42.0227C27.3975 41.823 28.2725 42.0619 28.7788 42.2651C29.8658 42.7013 32.0625 42.8462 33.079 43.4167C34.135 44.0092 34.0959 48.1481 35.1814 48.1481C36.5829 48.1481 35.1814 48.1481 35.8514 48.1481C37.4324 48.1481 38.0805 46.093 38.2766 45.4444C38.6852 44.0926 38.3468 42.377 38.2766 42.0545C37.9845 40.713 38.735 39.7107 39.5685 39.2943C40.7876 38.6852 40.7876 38.6852 41.7729 38.6852C43.5907 38.6851 43.198 38.5797 45.693 38.0092C47.5344 37.5882 47.4352 37.8242 48.4961 37.3333C49.0073 37.0968 49.8977 32.9073 49.8977 31.9259C49.8977 30.5741 49.8977 29.7247 49.8977 28.5463C49.8977 27.1944 50.3797 26.1471 49.1969 25.1667C47.9491 24.1323 45.7933 24.2761 44.7768 23.8661C43.7611 23.4564 42.0702 22.8654 41.7729 21.6236C41.4884 20.4352 43.0993 14.5913 42.8899 13" stroke="black" stroke-width="4" stroke-linecap="round"/>
<path d="M36 85C35.9 83.3726 35.4351 82.2672 34.709 81.2741C34.0786 80.4119 33.8204 79.2914 33.3743 78.2983C32.9132 77.2718 32.6857 76.152 32.3645 74.9096C32.0719 73.778 30.911 73.0919 30.4249 72.0987C29.8357 70.8949 28.889 70.1161 28.1228 69.3287C27.3145 68.4981 26.5469 67.4726 25.4971 66.1893C24.6652 65.1724 24.9871 64.3856 24.3798 62.8555C23.8501 61.5212 24.8259 58.6181 24.3798 57.3782C23.9226 56.1075 21.8667 52.0691 21.0328 51.2161C19.694 49.8467 17.0164 47.7927 15.6776 46.4234C14.9084 45.6366 13.931 43.4129 13 43" stroke="black" stroke-width="4" stroke-linecap="round"/>
<path d="M75.7692 76C74.7582 75.1084 72.4917 73.6987 71.2632 72.8485C70.2661 72.1584 70.0348 70.9938 69.3759 70.0648C68.7614 69.1983 68.3671 68.2101 67.4491 67.0896C65.9409 65.2487 65.1265 63.8813 64.553 62.8733C63.4365 60.9107 64.2426 57.3069 64.9423 56.263C66.0764 54.571 67.6569 53.5952 68.7998 53.0895C70.0442 52.5389 71.6026 52.0456 72.7889 51.6976C74.2647 51.2647 75.8113 51.0388 77.041 50.6931C79.4307 50.0214 80.9827 47.0255 81.8665 45.7473C82.1214 45.3786 81.9559 44.7103 81.8257 44.3565C81.6955 44.0028 81.4351 43.9262 81.1708 43.8485C78.5125 43.067 73.8069 43.7685 72.7534 44.0782C71.7099 44.3849 71.087 45.6197 70.3413 46.5511C69.3869 47.7431 66.4417 46.71 65.475 46.3237C63.5419 45.5514 65.3816 41.7618 65.9064 41.3756C66.7831 40.7303 68.0094 40.6785 69.2378 40.2922C69.5374 40.198 69.6771 39.9083 69.7231 39.6369C69.9363 38.3797 67.7457 37.7399 67.5793 36.8125C67.4615 36.1559 66.7967 33.9179 68.1538 32.1039C68.9519 31.0372 69.5758 31.468 70.2308 31.4286C73.4299 31.236 72.7577 27.3242 74.3846 26.7013C76.0416 26.0669 76.0236 24.2308 76.4615 24" stroke="black" stroke-width="4" stroke-linecap="round"/>
</svg>
